<svg width="11" height="12" viewBox="0 0 11 12" fill="none" xmlns="http://www.w3.org/2000/svg">
<path d="M1.18262 11.2776C0.988263 11.4721 0.771037 11.5293 0.530946 11.4492C0.290854 11.3691 0.125076 11.2147 0.0336128 10.9859C-0.0464177 10.7456 0.0164635 10.5225 0.222256 10.3166L9.82592 0.706643C10.0203 0.512156 10.2375 0.454954 10.4776 0.535036C10.7177 0.615119 10.8778 0.775285 10.9578 1.01553C11.0492 1.24434 10.9921 1.46171 10.7863 1.66764L1.18262 11.2776ZM0.222256 1.66764C0.0164635 1.46171 -0.0464177 1.24434 0.0336128 1.01553C0.113643 0.775285 0.273705 0.615119 0.513796 0.535036C0.765321 0.454954 0.988263 0.512156 1.18262 0.706643L10.7863 10.3166C10.9807 10.5111 11.0378 10.7285 10.9578 10.9687C10.8778 11.209 10.7177 11.3748 10.4776 11.4664C10.2489 11.5464 10.0317 11.4835 9.82592 11.2776L0.222256 1.66764Z" fill="#545454"/>
</svg>
