<svg width="21" height="21" viewBox="0 0 21 21" fill="none" xmlns="http://www.w3.org/2000/svg">
<path d="M7.77568 9.53242C7.11351 9.53242 6.54595 9.3413 6.07297 8.95904C5.6 8.55768 5.30676 8.06075 5.19324 7.46826C5.09865 6.85665 5.22162 6.25461 5.56216 5.66212L8.03108 1.36177C8.3527 0.769283 8.7973 0.367918 9.36487 0.157679C9.93243 -0.0525597 10.5 -0.0525597 11.0676 0.157679C11.6351 0.367918 12.0892 0.769283 12.4297 1.36177L14.8987 5.66212C15.2392 6.25461 15.3527 6.85665 15.2392 7.46826C15.1257 8.06075 14.8324 8.55768 14.3595 8.95904C13.8865 9.3413 13.3189 9.53242 12.6568 9.53242H7.77568ZM2.29865 20.4266C1.65541 20.4266 1.10676 20.2068 0.652703 19.7672C0.217568 19.3085 0 18.7543 0 18.1044V13.5747C0 12.9249 0.217568 12.3802 0.652703 11.9406C1.10676 11.4819 1.65541 11.2526 2.29865 11.2526H6.78243C7.42568 11.2526 7.96487 11.4819 8.4 11.9406C8.85405 12.3802 9.08108 12.9249 9.08108 13.5747V18.1044C9.08108 18.7543 8.85405 19.3085 8.4 19.7672C7.96487 20.2068 7.42568 20.4266 6.78243 20.4266H2.29865ZM6.78243 18.1331C6.87703 18.1331 6.91487 18.1522 6.89595 18.1904C6.89595 18.2096 6.87703 18.2191 6.83919 18.2191C6.82027 18.2191 6.81081 18.1809 6.81081 18.1044V13.5747C6.81081 13.4792 6.82027 13.441 6.83919 13.4601C6.87703 13.4601 6.89595 13.4792 6.89595 13.5174C6.91487 13.5365 6.87703 13.5461 6.78243 13.5461H2.29865C2.22297 13.5461 2.18514 13.5365 2.18514 13.5174C2.18514 13.4792 2.1946 13.4601 2.21351 13.4601C2.25135 13.441 2.27027 13.4792 2.27027 13.5747V18.1044C2.27027 18.1809 2.25135 18.2191 2.21351 18.2191C2.1946 18.2191 2.18514 18.2096 2.18514 18.1904C2.18514 18.1522 2.22297 18.1331 2.29865 18.1331H6.78243ZM15.8919 21C14.9649 21 14.1135 20.7706 13.3378 20.3119C12.5622 19.8341 11.9378 19.2034 11.4649 18.4198C11.0108 17.6362 10.7838 16.7761 10.7838 15.8396C10.7838 14.9031 11.0108 14.043 11.4649 13.2594C11.9378 12.4567 12.5622 11.8259 13.3378 11.3672C14.1135 10.9085 14.9649 10.6792 15.8919 10.6792C16.8189 10.6792 17.6703 10.9085 18.4459 11.3672C19.2405 11.8259 19.8649 12.4567 20.3189 13.2594C20.773 14.043 21 14.9031 21 15.8396C21 16.7761 20.773 17.6362 20.3189 18.4198C19.8649 19.2034 19.2405 19.8341 18.4459 20.3119C17.6703 20.7706 16.8189 21 15.8919 21ZM15.8919 18.7065C16.7432 18.7065 17.4243 18.4485 17.9351 17.9324C18.4649 17.3973 18.7297 16.6997 18.7297 15.8396C18.7297 14.9795 18.4649 14.2915 17.9351 13.7754C17.4243 13.2403 16.7432 12.9727 15.8919 12.9727C15.0405 12.9727 14.35 13.2403 13.8203 13.7754C13.3095 14.2915 13.0541 14.9795 13.0541 15.8396C13.0541 16.6997 13.3095 17.3973 13.8203 17.9324C14.35 18.4485 15.0405 18.7065 15.8919 18.7065ZM12.7703 7.23891C12.8459 7.23891 12.9122 7.22935 12.9689 7.21024C13.0257 7.17201 13.0541 7.12423 13.0541 7.06689C13.0541 7.00956 13.0257 6.94266 12.9689 6.86621L10.4149 2.45119C10.377 2.35563 10.3297 2.29829 10.273 2.27918C10.2351 2.24096 10.1878 2.24096 10.1311 2.27918C10.0932 2.29829 10.0554 2.35563 10.0176 2.45119L7.46351 6.86621C7.40676 6.94266 7.37838 7.00956 7.37838 7.06689C7.37838 7.12423 7.40676 7.17201 7.46351 7.21024C7.52027 7.22935 7.58649 7.23891 7.66216 7.23891H12.7703Z" fill="#3D3D40"/>
</svg>
