<svg width="27" height="28" viewBox="0 0 27 28" fill="none" xmlns="http://www.w3.org/2000/svg">
<path d="M5.22059 12.7778C4.80719 12.7778 4.49714 12.8796 4.29044 13.0833C4.08374 13.287 3.98039 13.5926 3.98039 14C3.98039 14.4074 4.08374 14.713 4.29044 14.9167C4.49714 15.1204 4.80719 15.2222 5.22059 15.2222C5.63399 15.2222 5.94404 15.1204 6.15074 14.9167C6.35744 14.713 6.46078 14.4074 6.46078 14C6.46078 13.5926 6.35744 13.287 6.15074 13.0833C5.94404 12.8796 5.63399 12.7778 5.22059 12.7778ZM5.22059 10.3333C5.88203 10.3333 6.50213 10.4963 7.08088 10.8222C7.65964 11.1481 8.11438 11.5963 8.4451 12.1667C8.77582 12.737 8.94118 13.3481 8.94118 14C8.94118 14.6519 8.77582 15.263 8.4451 15.8333C8.11438 16.3833 7.65964 16.8315 7.08088 17.1778C6.50213 17.5037 5.88203 17.6667 5.22059 17.6667C4.55915 17.6667 3.93905 17.5037 3.36029 17.1778C2.80221 16.8315 2.34747 16.3833 1.99608 15.8333C1.66536 15.263 1.5 14.6519 1.5 14C1.5 13.3481 1.66536 12.737 1.99608 12.1667C2.34747 11.5963 2.80221 11.1481 3.36029 10.8222C3.93905 10.4963 4.55915 10.3333 5.22059 10.3333ZM18.8627 5.44445C18.4493 5.44445 18.1393 5.5463 17.9326 5.75C17.7259 5.9537 17.6225 6.25926 17.6225 6.66667C17.6225 7.07407 17.7259 7.37963 17.9326 7.58333C18.1393 7.78704 18.4493 7.88889 18.8627 7.88889C19.2761 7.88889 19.5862 7.78704 19.7929 7.58333C19.9996 7.37963 20.1029 7.07407 20.1029 6.66667C20.1029 6.25926 19.9996 5.9537 19.7929 5.75C19.5862 5.5463 19.2761 5.44445 18.8627 5.44445ZM18.8627 3C19.5242 3 20.1443 3.16296 20.723 3.48889C21.3018 3.81482 21.7565 4.26296 22.0873 4.83333C22.418 5.4037 22.5833 6.01482 22.5833 6.66667C22.5833 7.31852 22.418 7.92963 22.0873 8.5C21.7565 9.05 21.3018 9.49815 20.723 9.84444C20.1443 10.1704 19.5242 10.3333 18.8627 10.3333C18.2013 10.3333 17.5812 10.1704 17.0025 9.84444C16.4444 9.49815 15.9896 9.05 15.6382 8.5C15.3075 7.92963 15.1422 7.31852 15.1422 6.66667C15.1422 6.01482 15.3075 5.4037 15.6382 4.83333C15.9896 4.26296 16.4444 3.81482 17.0025 3.48889C17.5812 3.16296 18.2013 3 18.8627 3ZM18.8627 20.1111C18.4493 20.1111 18.1393 20.213 17.9326 20.4167C17.7259 20.6204 17.6225 20.9259 17.6225 21.3333C17.6225 21.7407 17.7259 22.0463 17.9326 22.25C18.1393 22.4537 18.4493 22.5556 18.8627 22.5556C19.2761 22.5556 19.5862 22.4537 19.7929 22.25C19.9996 22.0463 20.1029 21.7407 20.1029 21.3333C20.1029 20.9259 19.9996 20.6204 19.7929 20.4167C19.5862 20.213 19.2761 20.1111 18.8627 20.1111ZM18.8627 17.6667C19.5242 17.6667 20.1443 17.8296 20.723 18.1556C21.3018 18.4815 21.7565 18.9296 22.0873 19.5C22.418 20.0704 22.5833 20.6815 22.5833 21.3333C22.5833 21.9852 22.418 22.5963 22.0873 23.1667C21.7565 23.7167 21.3018 24.1648 20.723 24.5111C20.1443 24.837 19.5242 25 18.8627 25C18.2013 25 17.5812 24.837 17.0025 24.5111C16.4444 24.1648 15.9896 23.7167 15.6382 23.1667C15.3075 22.5963 15.1422 21.9852 15.1422 21.3333C15.1422 20.6815 15.3075 20.0704 15.6382 19.5C15.9896 18.9296 16.4444 18.4815 17.0025 18.1556C17.5812 17.8296 18.2013 17.6667 18.8627 17.6667ZM16.1033 21.2417L6.80184 16.2306L7.98003 14.0917L17.2815 19.1028L16.1033 21.2417ZM6.80184 11.7694L16.1033 6.75833L17.2815 8.89722L7.98003 13.9083L6.80184 11.7694Z" fill="#3D3D40"/>
</svg>
