<svg width="24" height="22" viewBox="0 0 24 22" fill="none" xmlns="http://www.w3.org/2000/svg">
<path d="M4.33826 22C2.98256 22 1.91607 21.615 1.13879 20.845C0.379598 20.0567 0 18.975 0 17.6V17.49C0 16.4267 0.442864 15.4917 1.32859 14.685C2.21432 13.86 3.40734 13.2275 4.90766 12.7875C6.40798 12.3292 8.02579 12.1 9.76109 12.1C11.5145 12.1 13.1323 12.3292 14.6145 12.7875C16.1148 13.2275 17.3079 13.86 18.1936 14.685C19.0793 15.4917 19.5222 16.4267 19.5222 17.49V17.6C19.5222 18.975 19.1335 20.0567 18.3563 20.845C17.5971 21.615 16.5396 22 15.1839 22H4.33826ZM15.1839 19.8C16.0154 19.8 16.5848 19.6442 16.8921 19.3325C17.1994 19.0208 17.3531 18.4433 17.3531 17.6V17.49C17.3531 16.9033 17.0277 16.3717 16.3769 15.895C15.7443 15.4 14.8495 15.015 13.6926 14.74C12.5538 14.4467 11.2433 14.3 9.76109 14.3C8.29693 14.3 6.98641 14.4467 5.82954 14.74C4.67267 15.015 3.76887 15.4 3.11813 15.895C2.48546 16.3717 2.16913 16.9033 2.16913 17.49V17.6C2.16913 18.4433 2.32278 19.0208 2.63007 19.3325C2.93737 19.6442 3.50676 19.8 4.33826 19.8H15.1839ZM9.76109 11C8.76691 11 7.85406 10.7525 7.02256 10.2575C6.20914 9.7625 5.5584 9.1025 5.07034 8.2775C4.58229 7.43417 4.33826 6.50833 4.33826 5.5C4.33826 4.49167 4.58229 3.56583 5.07034 2.7225C5.5584 1.87917 6.20914 1.21917 7.02256 0.7425C7.85406 0.2475 8.76691 0 9.76109 0C10.7553 0 11.6681 0.2475 12.4996 0.7425C13.3311 1.21917 13.9819 1.87917 14.4518 2.7225C14.9399 3.56583 15.1839 4.49167 15.1839 5.5C15.1839 6.50833 14.9399 7.43417 14.4518 8.2775C13.9819 9.1025 13.3311 9.7625 12.4996 10.2575C11.6681 10.7525 10.7553 11 9.76109 11ZM9.76109 8.8C10.4118 8.8 10.9812 8.6625 11.4693 8.3875C11.9573 8.1125 12.3369 7.7275 12.6081 7.2325C12.8792 6.7375 13.0148 6.16 13.0148 5.5C13.0148 4.84 12.8792 4.2625 12.6081 3.7675C12.3369 3.2725 11.9573 2.8875 11.4693 2.6125C10.9812 2.3375 10.4118 2.2 9.76109 2.2C9.11035 2.2 8.54096 2.3375 8.0529 2.6125C7.56485 2.8875 7.18525 3.2725 6.91411 3.7675C6.64297 4.2625 6.5074 4.84 6.5074 5.5C6.5074 6.16 6.64297 6.7375 6.91411 7.2325C7.18525 7.7275 7.56485 8.1125 8.0529 8.3875C8.54096 8.6625 9.11035 8.8 9.76109 8.8ZM22.7759 8.8C23.2278 8.8 23.5351 8.98333 23.6978 9.35C23.8785 9.71667 23.8785 10.0833 23.6978 10.45C23.5351 10.8167 23.2278 11 22.7759 11H16.2685C15.8166 11 15.5003 10.8167 15.3195 10.45C15.1568 10.0833 15.1568 9.71667 15.3195 9.35C15.5003 8.98333 15.8166 8.8 16.2685 8.8H22.7759ZM20.6067 13.2C20.6067 13.6583 20.426 13.9792 20.0645 14.1625C19.7029 14.3275 19.3414 14.3275 18.9799 14.1625C18.6184 13.9792 18.4376 13.6583 18.4376 13.2V6.6C18.4376 6.14167 18.6184 5.83 18.9799 5.665C19.3414 5.48167 19.7029 5.48167 20.0645 5.665C20.426 5.83 20.6067 6.14167 20.6067 6.6V13.2Z" fill="#3D3D40"/>
</svg>
