<svg width="27" height="28" viewBox="0 0 27 28" fill="none" xmlns="http://www.w3.org/2000/svg">
<path d="M5.8 20.2C4.92 20.2 4.11 19.99 3.37 19.57C2.65 19.13 2.07 18.55 1.63 17.83C1.21 17.09 1 16.28 1 15.4V5.8C1 4.92 1.21 4.11 1.63 3.37C2.07 2.63 2.65 2.05 3.37 1.63C4.11 1.21 4.92 1 5.8 1H15.4C16.28 1 17.08 1.21 17.8 1.63C18.54 2.05 19.12 2.63 19.54 3.37C19.98 4.11 20.2 4.92 20.2 5.8V15.4C20.2 16.28 19.98 17.09 19.54 17.83C19.12 18.55 18.54 19.13 17.8 19.57C17.08 19.99 16.28 20.2 15.4 20.2H5.8ZM15.4 17.8C16.16 17.8 16.75 17.59 17.17 17.17C17.59 16.73 17.8 16.14 17.8 15.4V5.8C17.8 5.04 17.59 4.45 17.17 4.03C16.75 3.61 16.16 3.4 15.4 3.4H5.8C5.06 3.4 4.47 3.61 4.03 4.03C3.61 4.45 3.4 5.04 3.4 5.8V15.4C3.4 16.14 3.61 16.73 4.03 17.17C4.47 17.59 5.06 17.8 5.8 17.8H15.4ZM11.86 25C10.98 25 10.17 24.79 9.43 24.37C8.71 23.93 8.13 23.34 7.69 22.6C7.27 21.86 7.06 21.06 7.06 20.2V19H9.46V20.2C9.46 20.96 9.67 21.55 10.09 21.97C10.51 22.39 11.1 22.6 11.86 22.6H20.2C20.96 22.6 21.55 22.39 21.97 21.97C22.39 21.53 22.6 20.94 22.6 20.2V11.86C22.6 11.1 22.39 10.51 21.97 10.09C21.55 9.67 20.96 9.46 20.2 9.46H19V7.06H20.2C21.08 7.06 21.88 7.28 22.6 7.72C23.34 8.14 23.92 8.72 24.34 9.46C24.78 10.18 25 10.98 25 11.86V20.2C25 21.08 24.79 21.89 24.37 22.63C23.95 23.35 23.37 23.93 22.63 24.37C21.89 24.79 21.08 25 20.2 25H11.86Z" fill="#3D3D40"/>
</svg>
